<svg width="16" height="25" viewBox="0 0 16 25" fill="none" xmlns="http://www.w3.org/2000/svg">
<g clip-path="url(#clip0_713_1082)">
<path d="M13.8182 22.181C13.6727 22.181 13.5273 22.181 13.3818 22.181L2.61818 22.1068C1.23636 22.1068 0.0727273 20.9199 0.0727273 19.4362L0 2.67062C0 1.18694 1.16364 0 2.54545 0L13.3091 0.074184C13.9636 0.074184 14.6182 0.37092 15.1273 0.890208C15.6364 1.4095 15.8545 2.07715 15.8545 2.81899L16 19.5104C16 20.8457 15.0545 21.9585 13.8182 22.181ZM2.4 1.8546C2.03636 1.92878 1.74545 2.22552 1.74545 2.67062L1.81818 19.4362C1.81818 19.8813 2.18182 20.2522 2.61818 20.2522L13.4545 20.3264C13.6727 20.3264 13.8909 20.2522 14.0364 20.1039C14.1818 19.9555 14.2545 19.7329 14.2545 19.5104L14.1818 2.74481C14.1818 2.52226 14.1091 2.2997 13.9636 2.15134C13.8182 2.00297 13.6 1.92878 13.3818 1.92878H2.61818C2.54545 1.8546 2.47273 1.8546 2.4 1.8546Z" fill="#2E3138"/>
<path d="M8.36376 24.7774C7.63649 25.1483 6.69104 25.1483 6.03649 24.629C5.45467 24.1098 5.09104 23.2937 5.09104 22.4777L5.01831 5.63795C5.01831 4.15427 6.25467 3.63499 7.56376 2.96733L12.5819 0.37089C13.3092 -2.96384e-05 14.2547 -2.96161e-05 14.9092 0.519258C14.9819 0.593442 15.1274 0.667626 15.2001 0.74181C15.7092 1.2611 15.9274 1.92875 15.9274 2.67059L16.0001 19.5104C16.0001 20.8457 16.1456 21.0682 14.8365 21.7359" fill="#2E3138"/>
<path d="M8.14543 11.7952C7.99998 11.8694 7.7818 11.8694 7.56361 11.721C7.41816 11.5727 7.27271 11.4243 7.27271 11.2018V6.97327C7.27271 6.60235 7.56361 6.45398 7.92725 6.30561L9.16361 5.63795C9.3818 5.56377 9.59998 5.56377 9.74543 5.71214L9.81816 5.78632C9.96361 5.93469 10.0363 6.08306 10.0363 6.23143V10.4599C10.0363 10.8308 10.1091 10.8308 9.74543 11.0534" fill="#FED100"/>
</g>
<defs>
<clipPath id="clip0_713_1082">
<rect width="16" height="25" fill="white"/>
</clipPath>
</defs>
</svg>
