<svg width="77" height="22" viewBox="0 0 77 22" fill="none" xmlns="http://www.w3.org/2000/svg">
<path d="M10.3712 5.20393V3.60675H13.5662V15.8689C13.5662 17.8439 12.9154 19.3638 11.6137 20.4286C10.3289 21.4762 8.77368 22 6.94794 22C4.0741 22 2.07086 20.9524 0.938226 18.8572L3.72755 17.2342C4.35303 18.4364 5.46031 19.0375 7.04937 19.0375C8.08058 19.0375 8.89201 18.7627 9.48369 18.2132C10.0754 17.6636 10.3712 16.8822 10.3712 15.8689V14.4778C9.40762 15.783 8.05522 16.4357 6.31401 16.4357C4.52208 16.4357 3.01754 15.8002 1.80038 14.5294C0.600127 13.2241 0 11.6613 0 9.84088C0 8.02045 0.608579 6.46621 1.82574 5.17816C3.04289 3.89012 4.53898 3.2461 6.31401 3.2461C8.05522 3.2461 9.40762 3.89871 10.3712 5.20393ZM9.3569 12.3912C10.0331 11.7214 10.3712 10.8713 10.3712 9.84088C10.3712 8.81044 10.0331 7.97751 9.3569 7.34207C8.69761 6.67229 7.85236 6.3374 6.82116 6.3374C5.80686 6.3374 4.95316 6.67229 4.26005 7.34207C3.60076 7.97751 3.27111 8.81044 3.27111 9.84088C3.27111 10.8713 3.60076 11.7214 4.26005 12.3912C4.93625 13.0438 5.78995 13.3701 6.82116 13.3701C7.85236 13.3701 8.69761 13.0438 9.3569 12.3912Z" fill="#2E3138"/>
<path d="M23.0747 16.8478C21.1644 16.8478 19.5669 16.1952 18.2821 14.89C17.0143 13.5848 16.3803 11.9704 16.3803 10.047C16.3803 8.12349 17.0143 6.50914 18.2821 5.20393C19.5669 3.89871 21.1644 3.2461 23.0747 3.2461C24.3088 3.2461 25.4329 3.54664 26.4472 4.14773C27.4615 4.74882 28.2307 5.55599 28.7548 6.56925L25.9401 8.24371C25.6865 7.71131 25.2977 7.29055 24.7736 6.98142C24.2665 6.67229 23.6917 6.51773 23.0493 6.51773C22.0688 6.51773 21.2574 6.85262 20.615 7.5224C19.9726 8.17501 19.6514 9.01653 19.6514 10.047C19.6514 11.0431 19.9726 11.8846 20.615 12.5715C21.2574 13.2241 22.0688 13.5504 23.0493 13.5504C23.7086 13.5504 24.2918 13.4045 24.799 13.1125C25.3231 12.8034 25.7119 12.3826 25.9654 11.8502L28.8055 13.4989C28.2476 14.5294 27.4531 15.3451 26.4219 15.9462C25.4076 16.5473 24.2918 16.8478 23.0747 16.8478Z" fill="#2E3138"/>
<path d="M41.1467 10.5619V3.60652H44.4179V16.4869H41.1467V15.0443C40.3691 16.2465 39.1097 16.8476 37.3685 16.8476C35.9823 16.8476 34.8327 16.3753 33.9199 15.4307C33.0239 14.469 32.5759 13.1638 32.5759 11.5151V3.60652H35.847V11.1029C35.847 11.9444 36.0668 12.5971 36.5063 13.0608C36.9628 13.5244 37.5798 13.7563 38.3574 13.7563C39.2196 13.7563 39.8958 13.4901 40.386 12.9577C40.8932 12.4081 41.1467 11.6096 41.1467 10.5619Z" fill="#2E3138"/>
<path d="M41.1467 10.5619V3.60652H44.4179V16.4869H41.1467V15.0443C40.3691 16.2465 39.1097 16.8476 37.3685 16.8476C35.9823 16.8476 34.8327 16.3753 33.9199 15.4307C33.0239 14.469 32.5759 13.1638 32.5759 11.5151V3.60652H35.847V11.1029C35.847 11.9444 36.0668 12.5971 36.5063 13.0608C36.9628 13.5244 37.5798 13.7563 38.3574 13.7563C39.2196 13.7563 39.8958 13.4901 40.386 12.9577C40.8932 12.4081 41.1467 11.6096 41.1467 10.5619Z" fill="url(#paint0_linear_206_1624)"/>
<path d="M55.1732 3.60652V6.80086H52.3078V12.1591C52.3078 12.6056 52.4177 12.9319 52.6374 13.138C52.8572 13.3441 53.1784 13.4643 53.601 13.4987C54.0236 13.5159 54.5477 13.5073 55.1732 13.4729V16.4869C52.9586 16.7446 51.378 16.5385 50.4313 15.8687C49.5016 15.1817 49.0367 13.9452 49.0367 12.1591V6.80086H46.8306V3.60652H49.0367V1.00467L52.3078 0V3.60652H55.1732Z" fill="#2E3138"/>
<path d="M55.1732 3.60652V6.80086H52.3078V12.1591C52.3078 12.6056 52.4177 12.9319 52.6374 13.138C52.8572 13.3441 53.1784 13.4643 53.601 13.4987C54.0236 13.5159 54.5477 13.5073 55.1732 13.4729V16.4869C52.9586 16.7446 51.378 16.5385 50.4313 15.8687C49.5016 15.1817 49.0367 13.9452 49.0367 12.1591V6.80086H46.8306V3.60652H49.0367V1.00467L52.3078 0V3.60652H55.1732Z" fill="url(#paint1_linear_206_1624)"/>
<path d="M72.2075 3.24587C73.6613 3.24587 74.8193 3.72674 75.6814 4.68847C76.5605 5.65021 77 6.93825 77 8.5526V16.4869H73.7289V8.78445C73.7289 8.01162 73.5429 7.41054 73.171 6.98119C72.7991 6.55184 72.2751 6.33717 71.5989 6.33717C70.8551 6.33717 70.2718 6.58619 69.8492 7.08423C69.4435 7.58228 69.2406 8.30358 69.2406 9.24814V16.4869H65.9695V8.78445C65.9695 8.01162 65.7836 7.41054 65.4117 6.98119C65.0397 6.55184 64.5157 6.33717 63.8395 6.33717C63.1126 6.33717 62.5294 6.59478 62.0898 7.10999C61.6672 7.60804 61.4559 8.32075 61.4559 9.24814V16.4869H58.1848V3.60652H61.4559V4.97184C62.2166 3.82119 63.3915 3.24587 64.9806 3.24587C66.5527 3.24587 67.7023 3.86413 68.4292 5.10065C69.2575 3.86413 70.517 3.24587 72.2075 3.24587Z" fill="#2E3138"/>
<path d="M72.2075 3.24587C73.6613 3.24587 74.8193 3.72674 75.6814 4.68847C76.5605 5.65021 77 6.93825 77 8.5526V16.4869H73.7289V8.78445C73.7289 8.01162 73.5429 7.41054 73.171 6.98119C72.7991 6.55184 72.2751 6.33717 71.5989 6.33717C70.8551 6.33717 70.2718 6.58619 69.8492 7.08423C69.4435 7.58228 69.2406 8.30358 69.2406 9.24814V16.4869H65.9695V8.78445C65.9695 8.01162 65.7836 7.41054 65.4117 6.98119C65.0397 6.55184 64.5157 6.33717 63.8395 6.33717C63.1126 6.33717 62.5294 6.59478 62.0898 7.10999C61.6672 7.60804 61.4559 8.32075 61.4559 9.24814V16.4869H58.1848V3.60652H61.4559V4.97184C62.2166 3.82119 63.3915 3.24587 64.9806 3.24587C66.5527 3.24587 67.7023 3.86413 68.4292 5.10065C69.2575 3.86413 70.517 3.24587 72.2075 3.24587Z" fill="url(#paint2_linear_206_1624)"/>
<defs>
<linearGradient id="paint0_linear_206_1624" x1="31.2827" y1="-5.10907" x2="80.6113" y2="-1.39106" gradientUnits="userSpaceOnUse">
<stop stop-color="#FFC000"/>
<stop offset="1" stop-color="#F06966"/>
</linearGradient>
<linearGradient id="paint1_linear_206_1624" x1="31.2827" y1="-5.10907" x2="80.6113" y2="-1.39106" gradientUnits="userSpaceOnUse">
<stop stop-color="#FFC000"/>
<stop offset="1" stop-color="#F06966"/>
</linearGradient>
<linearGradient id="paint2_linear_206_1624" x1="31.2827" y1="-5.10907" x2="80.6113" y2="-1.39106" gradientUnits="userSpaceOnUse">
<stop stop-color="#FFC000"/>
<stop offset="1" stop-color="#F06966"/>
</linearGradient>
</defs>
</svg>
